<svg width="52" height="52" viewBox="0 0 52 52" xmlns="http://www.w3.org/2000/svg"><title>icon-raised-hands</title><g stroke="#FFF" stroke-width="2" fill="none" fill-rule="evenodd" stroke-linecap="round" stroke-linejoin="round"><path d="M49.333 29v8.667c0 3.684-2.984 6.666-6.666 6.666H38.22c-2.28 0-4.407-1.17-5.63-3.094-2.295-3.615-5.146-9.573-5.146-9.573-.45-.636-.375-1.503.175-2.054.59-.59 1.536-.625 2.172-.082l3.54 4.137V20.333c0-1.104.897-2 2-2 1.107 0 2 .896 2 2v8"/><path d="M37.333 25.667v-8c0-1.104.896-2 2-2 1.106 0 2 .896 2 2v8M41.333 28.333v-8c0-1.104.896-2 2-2 1.106 0 2 .896 2 2v8M45.333 30.333v-6c0-1.104.896-2 2-2 1.106 0 2 .896 2 2v8"/><g><path d="M2.667 29v8.667c0 3.684 2.984 6.666 6.666 6.666h4.447c2.28 0 4.407-1.17 5.63-3.094 2.295-3.615 5.146-9.573 5.146-9.573.45-.636.375-1.503-.175-2.054-.59-.59-1.536-.625-2.172-.082l-3.54 4.137V20.333c0-1.104-.897-2-2-2-1.107 0-2 .896-2 2v8"/><path d="M14.667 25.667v-8c0-1.104-.896-2-2-2-1.106 0-2 .896-2 2v8M10.667 28.333v-8c0-1.104-.896-2-2-2-1.106 0-2 .896-2 2v8M6.667 30.333v-6c0-1.104-.896-2-2-2-1.106 0-2 .896-2 2v8"/></g><path d="M19.333 6.333l4-1.333v6.667l-4-5.334zm-5.333 0l4 5.334-6.667-1.334 2.667-4zm18.667 0l-4-1.333v6.667l4-5.334zm5.333 0l-4 5.334 6.667-1.334-2.667-4z"/></g></svg>