<svg xmlns="http://www.w3.org/2000/svg" width="52" height="52" viewBox="0 0 52 52">
  <g fill="none" fill-rule="evenodd" stroke="#FFFFFF" stroke-width="2" transform="translate(7 5.5)" stroke-linecap="round" stroke-linejoin="round">
    <path d="M14,22.5624 L14,28.0004 L3.982,31.5784 C1.594,32.4324 0,34.6924 0,37.2284 L0,41.0004 L38,41.0004 L38,37.2284 C38,34.6924 36.406,32.4324 34.018,31.5784 L24,28.0004 L24,22.1884"/>
    <path d="M28.75,12 C28.75,18.626 24.272,24 18.75,24 C13.226,24 8.75,18.626 8.75,12 C8.75,5.374 13.226,0 18.75,0 C24.272,0 28.75,5.374 28.75,12 L28.75,12 Z"/>
    <path d="M28.6562,10.9062 C28.3202,10.9482 28.0882,10.9342 27.7502,11.0002 C24.3442,11.6562 22.1562,10.4222 20.2802,7.1402 C19.1562,9.2962 15.6382,11.0002 12.7502,11.0002 C11.3282,11.0002 10.1042,10.7082 8.8782,10.0682"/>
  </g>
</svg>
