<svg xmlns="http://www.w3.org/2000/svg" width="52" height="52" viewBox="0 0 52 52">
  <g fill="none" fill-rule="evenodd" stroke="#FFFFFF" stroke-width="2" transform="translate(3 3)" stroke-linecap="round" stroke-linejoin="round">
    <path d="M36 18C36 27.942 27.942 36 18 36 8.058 36 0 27.942 0 18 0 8.058 8.058 0 18 0 27.942 0 36 8.058 36 18L36 18zM30.7266 30.7286L46.0006 46.0006"/>
    <polyline points="28.953 26.949 20.999 23.645 20.999 20.093"/>
    <polyline points="15 20.25 15 23.644 7 26.866"/>
    <path d="M24.3106,13.4122 C24.3106,17.6502 21.4466,21.0842 17.9186,21.0842 C14.3846,21.0842 11.5226,17.6502 11.5226,13.4122 C11.5226,9.1762 14.3846,5.7402 17.9186,5.7402 C21.4466,5.7402 24.3106,9.1762 24.3106,13.4122 L24.3106,13.4122 Z"/>
    <path d="M24.25,12.416 C24.042,12.44 23.758,12.428 23.548,12.468 C21.466,12.87 20.13,12.116 18.982,10.108 C18.292,11.426 16.144,12.468 14.378,12.468 C13.506,12.468 12.432,12.25 11.682,11.858"/>
  </g>
</svg>
