<svg width="52" height="52" viewBox="0 0 52 52" xmlns="http://www.w3.org/2000/svg"><title>icon-cogs</title><g stroke="#FFF" stroke-width="2" fill="none" fill-rule="evenodd" stroke-linecap="round" stroke-linejoin="round"><path d="M25.023 33c0 3.312-2.688 6-6 6-3.316 0-6-2.688-6-6s2.684-6 6-6c3.312 0 6 2.688 6 6zM43.023 12c0 1.658-1.346 3-3 3-1.656 0-3-1.342-3-3 0-1.656 1.344-3 3-3 1.654 0 3 1.344 3 3z"/><path d="M32.023 33c0-.934-.106-1.842-.292-2.718l3.147-1.818-4-6.928-3.086 1.824c-1.343-1.216-2.627-2.156-4.627-2.724V17h-8v3.636c-2 .568-3.426 1.512-4.768 2.724L7.2 21.536l-4.017 6.928 3.136 1.818c-.187.876-.293 1.784-.293 2.718 0 .934.098 1.842.286 2.718l-3.148 1.818 3.998 6.928 3.232-1.824c1.342 1.216 2.768 2.156 4.768 2.728V49h8v-3.632c2-.572 3.284-1.512 4.63-2.728l3.118 1.824 3.985-6.928-3.154-1.818c.187-.876.283-1.784.283-2.718zM47.023 12c0-.558-.074-1.098-.196-1.62l1.99-1.148-2-3.462-1.92 1.148c-.786-.744-1.734-1.304-2.734-1.624V3h-4v2.296c-1 .318-2.088.878-2.872 1.622L33.26 5.77l-2.017 3.462 1.984 1.148c-.126.522-.2 1.062-.2 1.62s.068 1.098.194 1.62l-1.993 1.15 2 3.462 2.062-1.15c.783.744 1.873 1.308 2.873 1.626V21h4v-2.292c1-.318 1.948-.882 2.736-1.626l1.95 1.15 1.983-3.462-1.998-1.15c.124-.52.188-1.062.188-1.62z"/></g></svg>