<svg width="52" height="52" viewBox="0 0 52 52" xmlns="http://www.w3.org/2000/svg"><title>icon-hammer</title><g stroke="#FFF" stroke-width="2" fill="none" fill-rule="evenodd" stroke-linecap="round" stroke-linejoin="round"><path d="M22.94 49.286H2.37V47.23c0-1.135.92-2.06 2.056-2.06h16.457c1.138 0 2.057.925 2.057 2.06v2.056z"/><path d="M20.883 45.17H4.426v-2.056c0-1.133.922-2.057 2.057-2.057h12.343c1.138 0 2.057.924 2.057 2.057v2.057zM34.255 15.12L22.94 26.434l-7.2-7.2L27.055 7.92zM15.74 19.234l-1.028-1.028c-1.938-1.934-5.03 1.14-3.086 3.085l9.257 9.258c1.94 1.938 5.032-1.14 3.086-3.085l-1.03-1.03"/><path d="M34.255 15.12l1.028 1.028c1.94 1.938 5.032-1.14 3.086-3.085L29.11 3.806c-1.938-1.934-5.03 1.14-3.086 3.085l1.03 1.03M28.598 20.777l21.085 21.086"/></g></svg>