<svg xmlns="http://www.w3.org/2000/svg" width="52" height="52" viewBox="0 0 52 52">
  <g fill="none" fill-rule="evenodd" stroke="#FFFFFF" stroke-width="2" transform="translate(3 4)" stroke-linecap="round" stroke-linejoin="round">
    <path d="M46 40C46 42.208 44.208 44 42 44L4 44C1.792 44 0 42.208 0 40L0 4C0 1.792 1.792 0 4 0L42 0C44.208 0 46 1.792 46 4L46 40 46 40zM4 44L4 46M42 44L42 46"/>
    <path d="M6 32L6 34C6 36.208 7.792 38 10 38L36 38C38.208 38 40 36.208 40 34L40 10C40 7.792 38.208 6 36 6L10 6C7.792 6 6 7.792 6 10L6 12M6 18L6 26"/>
    <polygon points="4 18 8 18 8 12 4 12"/>
    <polygon points="4 32 8 32 8 26 4 26"/>
    <path d="M33,22 C33,26.972 28.97,31 24,31 C19.03,31 15,26.972 15,22 C15,17.03 19.03,13 24,13 C28.97,13 33,17.03 33,22 L33,22 Z"/>
    <path d="M29 22C29 24.762 26.762 27 24 27 21.238 27 19 24.762 19 22 19 19.24 21.238 17 24 17 26.762 17 29 19.24 29 22L29 22zM24 13L24 17M17 15L19.828 17.83M15 22L19 22M17 27.828L19.828 25M24 31L24 27M29.828 27.83L27 25M33 22L29 22M29.828 15L27 17.83"/>
  </g>
</svg>
