<svg xmlns="http://www.w3.org/2000/svg" width="52" height="52" viewBox="0 0 52 52">
  <g fill="none" fill-rule="evenodd" stroke="#FFFFFF" stroke-width="2" transform="translate(3 3)" stroke-linecap="round" stroke-linejoin="round">
    <path d="M46,23 C46,35.704 35.704,46 23,46 C10.298,46 0,35.704 0,23 C0,10.296 10.298,0 23,0 C35.704,0 46,10.296 46,23 L46,23 Z"/>
    <path d="M23 7.668C14.532 7.668 7.666 14.532 7.666 23 7.666 26.196 8.644 29.16 10.318 31.616L31.618 10.318C29.16 8.646 26.196 7.668 23 7.668L23 7.668zM14.3828 35.6816C16.8408 37.3536 19.8048 38.3336 23.0008 38.3336 31.4668 38.3336 38.3348 31.4696 38.3348 22.9996 38.3348 19.8056 37.3528 16.8396 35.6808 14.3836L14.3828 35.6816 14.3828 35.6816z"/>
  </g>
</svg>
