<svg width="52" height="52" viewBox="0 0 52 52" xmlns="http://www.w3.org/2000/svg"><title>icon-smiley</title><g stroke="#FFF" stroke-width="2" fill="none" fill-rule="evenodd" stroke-linecap="round" stroke-linejoin="round"><path d="M50 26c0 13.254-10.746 24-24 24C12.744 50 2 39.254 2 26 2 12.744 12.744 2 26 2c13.254 0 24 10.744 24 24z"/><path d="M41.455 28.057c0 8.523-6.908 15.43-15.43 15.43-8.52 0-15.427-6.907-15.427-15.43h30.857zM20.883 17.77c0 2.277-1.843 4.116-4.114 4.116-2.274 0-4.115-1.84-4.115-4.115M31.17 17.77c0 2.277 1.84 4.116 4.113 4.116 2.27 0 4.115-1.84 4.115-4.115"/></g></svg>