<svg xmlns="http://www.w3.org/2000/svg" width="52" height="52" viewBox="0 0 52 52">
  <g fill="none" fill-rule="evenodd" stroke="#FFFFFF" stroke-width="2" transform="translate(6 2)" stroke-linecap="round" stroke-linejoin="round">
    <path d="M29.9726 5.791C25.9526 5.791 22.3666 3.921 20.0146.999L19.9806.999C17.6286 3.921 14.0446 5.791 10.0226 5.791 6.5046 5.791 3.3146 4.413.0006 2.093L.0006 31.719C.0006 31.719 2.8986 42.207 20.0006 46.999 39.0006 41.999 40.0006 31.833 40.0006 31.833L40.0006 2.209C34.6806 4.359 33.4926 5.791 29.9726 5.791L29.9726 5.791zM0 23.0528L39.81 23.0008M20 1L20 47M8 6.5L8 22.772M4 4.5L4 22.772M12 5.75L12 23M16 4.3144L16 23.0004M24 23L24 45.25M28 23L28 44M32 22.9688L32 41.0628M36 22.9688L36 38.1248"/>
  </g>
</svg>
