<svg viewBox="0 0 257 201" xmlns="http://www.w3.org/2000/svg" xmlns:xlink="http://www.w3.org/1999/xlink"><defs><circle id="b" cx="48" cy="48" r="48"/><filter x="-50%" y="-50%" width="200%" height="200%" filterUnits="objectBoundingBox" id="a"><feOffset dy="1" in="SourceAlpha" result="shadowOffsetOuter1"/><feGaussianBlur stdDeviation="1.5" in="shadowOffsetOuter1" result="shadowBlurOuter1"/><feColorMatrix values="0 0 0 0 0.196078431 0 0 0 0 0.211764706 0 0 0 0 0.247058824 0 0 0 0.19 0" in="shadowBlurOuter1" result="shadowMatrixOuter1"/><feOffset dy="4" in="SourceAlpha" result="shadowOffsetOuter2"/><feGaussianBlur stdDeviation="6" in="shadowOffsetOuter2" result="shadowBlurOuter2"/><feColorMatrix values="0 0 0 0 0.196078431 0 0 0 0 0.211764706 0 0 0 0 0.247058824 0 0 0 0.117357337 0" in="shadowBlurOuter2" result="shadowMatrixOuter2"/><feMerge><feMergeNode in="shadowMatrixOuter1"/><feMergeNode in="shadowMatrixOuter2"/></feMerge></filter></defs><g fill="none" fill-rule="evenodd"><g transform="translate(78 57)"><use fill="#000" filter="url(#a)" xlink:href="#b"/><use fill="#33A6FF" xlink:href="#b"/></g><path d="M139.172 124h-26.344C104.65 124 98 117.288 98 109.037c0-3.935 1.5-7.652 4.23-10.464 2.39-2.462 5.484-3.994 8.833-4.392.395-3.38 1.912-6.502 4.353-8.912 2.787-2.754 6.47-4.267 10.37-4.267 3.898 0 7.582 1.514 10.37 4.267 2.43 2.4 3.942 5.507 4.348 8.868 7.554.683 13.496 7.107 13.496 14.904 0 8.25-6.655 14.96-14.83 14.96h.002zm-.055-3h.113c6.49 0 11.77-5.345 11.77-11.914 0-6.568-5.28-11.912-11.77-11.912h-.118c-.847 0-1.542-.682-1.56-1.542C137.404 89.216 132.126 84 125.785 84c-6.342 0-11.622 5.22-11.767 11.634-.02.844-.692 1.524-1.527 1.544-6.336.148-11.492 5.49-11.492 11.91 0 6.568 5.28 11.912 11.77 11.912h.096l.037-.002c.035 0 .068 0 .1.002h26.115zm-5.366-12.777c-.932-.585-.98-1.66-.98-1.706-.007-.292-.255-.52-.56-.517-.304.005-.546.247-.54.536 0 .04.018.543.268 1.137-3.324 3.02-8.55 3.026-11.88.02.257-.604.274-1.117.274-1.156.006-.29-.234-.528-.536-.536-.3-.006-.553.227-.563.517 0 .043-.044 1.12-.98 1.706-.255.16-.327.488-.16.73.105.156.28.24.46.24.104 0 .208-.027.3-.085.24-.15.443-.322.61-.505 1.852 1.6 4.19 2.398 6.528 2.398 2.345 0 4.69-.8 6.54-2.407.17.184.376.36.623.515.092.058.197.085.3.085.18 0 .355-.085.46-.24.166-.244.095-.573-.16-.73z" fill="#FFF"/><g stroke="#A7B5C6"><path d="M130.5 179.5h-4v21h23v-21h-4"/><path d="M133.5 181.5h-3v-4h3zm12 0h-3v-4h3zm-12-2h9m-16 5h23m-14 12v-8l-2 2m0 6h4m2.5 0l3-8h-5v1m1.5 3h3M52.5 56.5h-17v-23h11l6 6z"/><path d="M46.5 33.5v6h6m-13 1H44m-4.5 3h9m-9 3h9m-9 3h9m-9 3h9M243.5 98.5h-17v-23h11l6 6z"/><path d="M237.5 75.5v6h6m-14 10l4-4 3 2 3.75-4"/><path d="M229.5 83v11.5h11M114.513 30c0 1.5-1.343 3-3 3-1.656 0-3-1.343-3-3 0-1.656 1.344-3 3-3h3v3zm11-4c0 1.5-1.343 3-3 3-1.656 0-3-1.343-3-3 0-1.656 1.344-3 3-3h3v3z"/><path d="M114.513 28V15l11-4.5V25m-11-6.5l11-4.5"/><g><path d="M230.5 165.5h-23v-11h23zm0-11h-23v-3h23zm-7-3v3m-9-3v3m16 14h-23v-3h23zm-7-3v3m-9-3v3"/><path d="M216.5 162.5v-5l5.5 2.5z"/></g><g><path d="M26.513 128.5h-23v-23h23zm0-6h-23"/><path d="M12.513 108.5c-1.245 0-2.27.914-2.46 2.104-.17-.065-.35-.104-.54-.104-.828 0-1.5.672-1.5 1.5s.672 1.5 1.5 1.5h3c1.38 0 2.5-1.12 2.5-2.5s-1.12-2.5-2.5-2.5zm-6 14s2-5 4.5-5 4.5 3 4.5 3l3.015-5.168c.3-.516.852-.832 1.448-.832.636 0 1.217.36 1.5.928l3.537 7.072"/></g><g><path d="M193.513 44.5l2-2 2 2 2-2 2 2 2-2 2 2 2-2 2 2v-23l-2 2-2-2-2 2-2-2-2 2-2-2-2 2-2-2zm3-17h8m-8 3h4m-4 3h4m-4 3h3m5.5 2v1m0-8v1"/><path d="M203.513 37c0 .828.672 1.5 1.5 1.5s1.5-.672 1.5-1.5-.672-1.5-1.5-1.5-1.5-.672-1.5-1.5.672-1.5 1.5-1.5 1.5.672 1.5 1.5"/></g><g><path d="M66.5 181c0 .828-.672 1.5-1.5 1.5H45c-.828 0-1.5-.672-1.5-1.5v-12c0-.83.672-1.5 1.5-1.5h20c.828 0 1.5.67 1.5 1.5v12z"/><path d="M63.5 171.5L55 177l-8.5-5.5m0 7.5l3.5-2m13.5 2l-3.5-2"/></g></g><g stroke="#A7B5C6" transform="translate(0 1)"><circle cx="146" cy="2" r="2"/><circle cx="254" cy="147" r="2"/><circle cx="237" cy="34" r="2"/><path d="M72 45s3 0 3-3c0 0 0 3 3 3 0 0-3 0-3 3 0 0 0-3-3-3zM0 79s4 0 4-4c0 0 0 4 4 4 0 0-4 0-4 4 0 0 0-4-4-4zm181 109s4 0 4-4c0 0 0 4 4 4 0 0-4 0-4 4 0 0 0-4-4-4zm33-120s4 0 4-4c0 0 0 4 4 4 0 0-4 0-4 4 0 0 0-4-4-4z" stroke-linecap="round" stroke-linejoin="round"/><circle cx="13" cy="171" r="3"/></g></g></svg>
