<?xml version="1.0" encoding="UTF-8" standalone="no"?>
<svg width="170px" height="58px" viewBox="0 0 170 58" version="1.1" xmlns="http://www.w3.org/2000/svg" xmlns:xlink="http://www.w3.org/1999/xlink" xmlns:sketch="http://www.bohemiancoding.com/sketch/ns">
    <!-- Generator: Sketch 3.3.2 (12043) - http://www.bohemiancoding.com/sketch -->
    <title>google-play-btn</title>
    <desc>Created with Sketch.</desc>
    <defs>
        <path id="path-1" d="M19.5169796,10.7935714 L13.3560408,7.20214286 C13.3560408,7.20214286 2.132,0.658928571 1.47191837,0.274285714 C0.811836735,-0.110357143 0.154938776,0.122678571 0.154938776,0.92625 L0.154938776,14.8971429 L0.154938776,29.1514286 C0.154938776,29.7541071 0.625061224,30.0139286 1.19812245,29.6796429 C1.77118367,29.3453571 13.3565714,22.5921429 13.3565714,22.5921429 L19.5175102,19.00125 C19.5175102,19.00125 24.745102,15.9541071 25.4396735,15.5496429 C26.1347755,15.1446429 26.0679184,14.5885714 25.4815918,14.2698214 C24.8952653,13.9510714 19.5169796,10.7935714 19.5169796,10.7935714 L19.5169796,10.7935714 Z"></path>
        <linearGradient x1="49.9993047%" y1="-0.000701213099%" x2="49.9993047%" y2="100.000175%" id="linearGradient-3">
            <stop stop-color="#207CB0" offset="0%"></stop>
            <stop stop-color="#3CB2BF" offset="37.57%"></stop>
            <stop stop-color="#58E9CE" offset="79.61%"></stop>
            <stop stop-color="#63FFD4" offset="100%"></stop>
        </linearGradient>
        <path id="path-4" d="M19.5169796,10.7935714 L13.3560408,7.20214286 C13.3560408,7.20214286 2.132,0.658928571 1.47191837,0.274285714 C0.811836735,-0.110357143 0.154938776,0.122678571 0.154938776,0.92625 L0.154938776,14.8971429 L0.154938776,29.1514286 C0.154938776,29.7541071 0.625061224,30.0139286 1.19812245,29.6796429 C1.77118367,29.3453571 13.3565714,22.5921429 13.3565714,22.5921429 L19.5175102,19.00125 C19.5175102,19.00125 24.745102,15.9541071 25.4396735,15.5496429 C26.1347755,15.1446429 26.0679184,14.5885714 25.4815918,14.2698214 C24.8952653,13.9510714 19.5169796,10.7935714 19.5169796,10.7935714 L19.5169796,10.7935714 Z"></path>
        <linearGradient x1="-0.00137023842%" y1="49.9993039%" x2="100.000548%" y2="49.9993039%" id="linearGradient-6">
            <stop stop-color="#4BC3AE" offset="0%"></stop>
            <stop stop-color="#DEE999" offset="100%"></stop>
        </linearGradient>
        <path id="path-7" d="M19.5169796,10.7935714 L13.3560408,7.20214286 C13.3560408,7.20214286 2.132,0.658928571 1.47191837,0.274285714 C0.811836735,-0.110357143 0.154938776,0.122678571 0.154938776,0.92625 L0.154938776,14.8971429 L0.154938776,29.1514286 C0.154938776,29.7541071 0.625061224,30.0139286 1.19812245,29.6796429 C1.77118367,29.3453571 13.3565714,22.5921429 13.3565714,22.5921429 L19.5175102,19.00125 C19.5175102,19.00125 24.745102,15.9541071 25.4396735,15.5496429 C26.1347755,15.1446429 26.0679184,14.5885714 25.4815918,14.2698214 C24.8952653,13.9510714 19.5169796,10.7935714 19.5169796,10.7935714 L19.5169796,10.7935714 Z"></path>
        <linearGradient x1="49.9989038%" y1="0.000348080337%" x2="49.9989038%" y2="100.000348%" id="linearGradient-9">
            <stop stop-color="#EC403D" offset="0%"></stop>
            <stop stop-color="#C93B75" offset="38.4%"></stop>
            <stop stop-color="#A636AC" offset="79.88%"></stop>
            <stop stop-color="#9934C2" offset="100%"></stop>
        </linearGradient>
        <path id="path-10" d="M19.5169796,10.7935714 L13.3560408,7.20214286 C13.3560408,7.20214286 2.132,0.658928571 1.47191837,0.274285714 C0.811836735,-0.110357143 0.154938776,0.122678571 0.154938776,0.92625 L0.154938776,14.8971429 L0.154938776,29.1514286 C0.154938776,29.7541071 0.625061224,30.0139286 1.19812245,29.6796429 C1.77118367,29.3453571 13.3565714,22.5921429 13.3565714,22.5921429 L19.5175102,19.00125 C19.5175102,19.00125 24.745102,15.9541071 25.4396735,15.5496429 C26.1347755,15.1446429 26.0679184,14.5885714 25.4815918,14.2698214 C24.8952653,13.9510714 19.5169796,10.7935714 19.5169796,10.7935714 L19.5169796,10.7935714 Z"></path>
        <linearGradient x1="50.0009526%" y1="-0.00065269891%" x2="50.0009526%" y2="100.004569%" id="linearGradient-12">
            <stop stop-color="#FF8877" offset="0%"></stop>
            <stop stop-color="#FFB175" offset="61.21%"></stop>
            <stop stop-color="#FFC774" offset="100%"></stop>
        </linearGradient>
    </defs>
    <g id="icons" stroke="none" stroke-width="1" fill="none" fill-rule="evenodd" sketch:type="MSPage">
        <g id="google-play-btn" sketch:type="MSLayerGroup">
            <rect id="Rectangle-9" fill="#000000" sketch:type="MSShapeGroup" x="0" y="0" width="170" height="58" rx="8"></rect>
            <g id="PLAY" transform="translate(7.000000, 22.000000)">
                <g id="Clipped">
                    <mask id="mask-2" sketch:name="SVGID_1_" fill="white">
                        <use xlink:href="#path-1"></use>
                    </mask>
                    <g id="SVGID_1_"></g>
                    <path d="M0.154938776,-0.381964286 L0.154938776,14.8976786 L0.154938776,30.1773214 L15.4174694,14.8976786 L0.154938776,-0.381964286 Z" id="Shape" fill="url(#linearGradient-3)" sketch:type="MSShapeGroup" mask="url(#mask-2)"></path>
                </g>
                <g id="Clipped">
                    <mask id="mask-5" sketch:name="SVGID_1_" fill="white">
                        <use xlink:href="#path-4"></use>
                    </mask>
                    <g id="SVGID_1_"></g>
                    <path d="M19.5169796,10.7935714 L13.3560408,7.20214286 L0.154938776,-0.493392857 L0.154938776,-0.381964286 L15.4174694,14.8976786 L19.5169796,10.7935714 Z" id="Shape" fill="url(#linearGradient-6)" sketch:type="MSShapeGroup" mask="url(#mask-5)"></path>
                </g>
                <g id="Clipped">
                    <mask id="mask-8" sketch:name="SVGID_1_" fill="white">
                        <use xlink:href="#path-7"></use>
                    </mask>
                    <g id="SVGID_1_"></g>
                    <path d="M0.154938776,30.1773214 L0.154938776,30.2882143 L13.3560408,22.5921429 L19.5169796,19.00125 L15.4174694,14.8976786 L0.154938776,30.1773214 Z" id="Shape" fill="url(#linearGradient-9)" sketch:type="MSShapeGroup" mask="url(#mask-8)"></path>
                </g>
                <g id="Clipped">
                    <mask id="mask-11" sketch:name="SVGID_1_" fill="white">
                        <use xlink:href="#path-10"></use>
                    </mask>
                    <g id="SVGID_1_"></g>
                    <path d="M19.5169796,10.7935714 L15.4174694,14.8976786 L19.5169796,19.00125 L26.5576735,14.8976786 L19.5169796,10.7935714 Z" id="Shape" fill="url(#linearGradient-12)" sketch:type="MSShapeGroup" mask="url(#mask-11)"></path>
                </g>
            </g>
            <g id="Group-+-Group" transform="translate(39.000000, 25.000000)" sketch:type="MSShapeGroup">
                <g id="Group" transform="translate(83.644970, 1.444444)" fill="#FFFFFF">
                    <path d="M6.15084024,17.3037222 C5.3584142,17.3037222 4.63495858,17.16 3.97973964,16.8718333 C3.32452071,16.5836667 2.77422485,16.1409444 2.33031953,15.5436667 L2.19678107,15.5436667 C2.28556213,16.2435 2.33031953,16.9072222 2.33031953,17.5333889 L2.33031953,22.4632778 L0.487195266,22.4632778 L0.487195266,5.10394444 L1.98620118,5.10394444 L2.24153846,6.74411111 L2.33031953,6.74411111 C2.80430769,6.08833333 3.35607101,5.61455556 3.98560947,5.32277778 C4.6144142,5.03172222 5.33713609,4.88583333 6.15084024,4.88583333 C7.76504142,4.88583333 9.01091124,5.42894444 9.8884497,6.51444444 C10.7652544,7.60066667 11.2047574,9.12383333 11.2047574,11.0839444 C11.2047574,13.052 10.7586509,14.5802222 9.8671716,15.6707778 C8.97422485,16.7598889 7.73569231,17.3037222 6.15084024,17.3037222 L6.15084024,17.3037222 Z M5.88449704,6.42705556 C4.6408284,6.42705556 3.74127811,6.76577778 3.18584615,7.44394444 C2.6304142,8.12211111 2.34499408,9.20038889 2.33031953,10.6802222 L2.33031953,11.0846667 C2.33031953,12.7681667 2.61573964,13.9728333 3.18584615,14.6979444 C3.75595266,15.4230556 4.67017751,15.7856111 5.92852071,15.7856111 C6.98068639,15.7856111 7.80466272,15.3667222 8.4004497,14.5289444 C8.99623669,13.6911667 9.29413018,12.5356111 9.29413018,11.063 C9.29413018,9.56944444 8.99623669,8.42255556 8.4004497,7.62522222 C7.80466272,6.82572222 6.96601183,6.42705556 5.88449704,6.42705556 L5.88449704,6.42705556 Z" id="Shape"></path>
                    <path d="M15.4728521,17.0856111 L13.6289941,17.0856111 L13.6289941,0.0751111111 L15.4728521,0.0751111111 L15.4728521,17.0856111 L15.4728521,17.0856111 Z" id="Shape"></path>
                    <path d="M26.072284,17.0856111 L25.7054201,15.3804444 L25.6166391,15.3804444 C25.0098462,16.1315556 24.4045207,16.64 23.8006627,16.9050556 C23.1975385,17.1715556 22.4432663,17.3044444 21.5407811,17.3044444 C20.3337988,17.3044444 19.3880237,16.9982222 18.7034556,16.3865 C18.0188876,15.7747778 17.6762367,14.9037778 17.6762367,13.7742222 C17.6762367,11.3547778 19.6426272,10.0872778 23.5732071,9.96955556 L25.6393846,9.90383333 L25.6393846,9.16066667 C25.6393846,8.22033333 25.4339408,7.52627778 25.0223195,7.0785 C24.611432,6.63 23.9540118,6.40611111 23.0507929,6.40611111 C22.0360473,6.40611111 20.888497,6.71233333 19.608142,7.32405556 L19.0417041,5.93594444 C19.6418935,5.61527778 20.2985799,5.36394444 21.0139645,5.18194444 C21.7286154,4.99994444 22.444,4.90894444 23.1630533,4.90894444 C24.6143669,4.90894444 25.6892781,5.226 26.3892544,5.86011111 C27.088497,6.49422222 27.4384852,7.51111111 27.4384852,8.91005556 L27.4384852,17.0870556 L26.072284,17.0870556 L26.072284,17.0856111 Z M21.907645,15.8065556 C23.0544615,15.8065556 23.956213,15.4967222 24.6121657,14.8777778 C25.2673846,14.2588333 25.5953609,13.3907222 25.5953609,12.2748889 L25.5953609,11.193 L23.7507692,11.2688333 C22.2847811,11.3201111 21.228213,11.544 20.5803314,11.9419444 C19.9324497,12.3391667 19.6088757,12.9566667 19.6088757,13.7944444 C19.6088757,14.4502222 19.8099172,14.95 20.2142012,15.2916111 C20.6170178,15.6353889 21.1812544,15.8065556 21.907645,15.8065556 L21.907645,15.8065556 Z" id="Shape"></path>
                    <path d="M28.5082604,5.10394444 L30.4841893,5.10394444 L33.1498225,11.9361667 C33.7346036,13.4961667 34.0977988,14.6221111 34.2386746,15.3147222 L34.3274556,15.3147222 C34.423574,14.9420556 34.6253491,14.3065 34.9320473,13.4058889 C35.2394793,12.506 36.2446864,9.73844444 37.9469349,5.10322222 L39.9243314,5.10322222 L34.6928521,18.746 C34.1748402,20.0943889 33.5695148,21.0506111 32.876142,21.6168333 C32.1842367,22.1808889 31.3338462,22.4632778 30.3279053,22.4632778 C29.7644024,22.4632778 29.2097041,22.4011667 28.6616095,22.2776667 L28.6616095,20.8238333 C29.0688284,20.9112222 29.5244734,20.9552778 30.0278107,20.9552778 C31.2942249,20.9552778 32.1967101,20.2554444 32.7374675,18.8565 L33.4146982,17.1513333 L28.5082604,5.10394444 L28.5082604,5.10394444 Z" id="Shape"></path>
                </g>
                <g id="Group">
                    <path d="M55.6444497,7.66205556 C56.2299645,8.13872222 57.4516213,9.14044444 57.4516213,11.0456667 C57.4516213,12.8988889 56.3825799,13.7778333 55.3128047,14.6033333 C54.9818935,14.9283333 54.5996213,15.2807778 54.5996213,15.8325556 C54.5996213,16.3828889 54.9818935,16.6840556 55.2621775,16.9093889 L56.1793373,17.6099444 C57.2990059,18.5372778 58.3166864,19.3902222 58.3166864,21.1199444 C58.3166864,23.4751111 55.999574,25.8555556 51.6214201,25.8555556 C47.9293018,25.8555556 46.1478107,24.1265556 46.1478107,22.2711667 C46.1478107,21.3691111 46.6041893,20.0915 48.1083314,19.214 C49.6851124,18.2621111 51.8253964,18.1378889 52.9707456,18.0606111 C52.6134201,17.6099444 52.2069349,17.134 52.2069349,16.3583333 C52.2069349,15.9329444 52.3346036,15.6816111 52.4615385,15.3804444 C52.1805207,15.4057222 51.9009704,15.4302778 51.6463669,15.4302778 C48.9484497,15.4302778 47.4208284,13.4506667 47.4208284,11.4970556 C47.4208284,10.3436667 47.955716,9.06533333 49.0497041,8.13872222 C50.5017515,6.96077778 52.2326154,6.76 53.608355,6.76 L58.851574,6.76 L57.2219645,7.66205556 L55.6444497,7.66205556 L55.6444497,7.66205556 Z M53.8372781,18.7893333 C53.6340355,18.7633333 53.5056331,18.7633333 53.252497,18.7633333 C53.023574,18.7633333 51.6471006,18.8138889 50.5780592,19.1663333 C50.0182249,19.3649444 48.3886154,19.9665556 48.3886154,21.7468333 C48.3886154,23.5249444 50.1466272,24.8047222 52.8702249,24.8047222 C55.3128047,24.8047222 56.6129704,23.6491667 56.6129704,22.0971111 C56.6129704,20.8173333 55.7721183,20.1427778 53.8372781,18.7893333 L53.8372781,18.7893333 Z M54.5754083,14.027 C55.1601893,13.4499444 55.2100828,12.649 55.2100828,12.1976111 C55.2100828,10.3935 54.1160947,7.58694444 52.0036923,7.58694444 C51.3411361,7.58694444 50.6286864,7.91266667 50.2207337,8.41461111 C49.788568,8.94111111 49.6601657,9.61711111 49.6601657,10.2692778 C49.6601657,11.9477222 50.6536331,14.7297222 52.8438107,14.7297222 C53.4806864,14.729 54.1667219,14.4285556 54.5754083,14.027 L54.5754083,14.027 Z" id="Shape" fill="#FFFFFF"></path>
                    <path d="M39.6168994,18.3877778 C35.5762604,18.3877778 33.415432,15.2851111 33.415432,12.4821667 C33.415432,9.204 36.1346272,6.40322222 39.9999053,6.40322222 C43.7345799,6.40322222 46.0737041,9.27983333 46.0737041,12.3081111 C46.0729704,15.2591111 43.7609941,18.3877778 39.6168994,18.3877778 L39.6168994,18.3877778 Z M42.7939408,16.3619444 C43.4051361,15.561 43.5577515,14.5607222 43.5577515,13.5835556 C43.5577515,11.3815 42.4901775,7.17888889 39.3380828,7.17888889 C38.499432,7.17888889 37.6607811,7.50461111 37.0510533,8.03111111 C36.059787,8.90572222 35.8807574,10.0071111 35.8807574,11.0839444 C35.8807574,13.559 37.1266272,17.6366667 40.2031479,17.6366667 C41.1936805,17.6359444 42.2106272,17.1614444 42.7939408,16.3619444 L42.7939408,16.3619444 Z" id="Shape" fill="#FFFFFF"></path>
                    <path d="M25.8396923,18.3877778 C21.7983195,18.3877778 19.6374911,15.2851111 19.6374911,12.4821667 C19.6374911,9.204 22.3581538,6.40322222 26.2219645,6.40322222 C29.9581065,6.40322222 32.296497,9.27983333 32.296497,12.3081111 C32.296497,15.2591111 29.983787,18.3877778 25.8396923,18.3877778 L25.8396923,18.3877778 Z M29.0174675,16.3619444 C29.627929,15.561 29.7805444,14.5607222 29.7805444,13.5835556 C29.7805444,11.3815 28.7122367,7.17888889 25.560142,7.17888889 C24.7222249,7.17888889 23.8828402,7.50461111 23.2731124,8.03111111 C22.2818462,8.90572222 22.104284,10.0071111 22.104284,11.0839444 C22.104284,13.559 23.3486864,17.6366667 26.4259408,17.6366667 C27.4172071,17.6359444 28.4326864,17.1614444 29.0174675,16.3619444 L29.0174675,16.3619444 Z" id="Shape" fill="#FFFFFF"></path>
                    <path d="M17.6960473,17.9956111 L14.0413491,18.8254444 C12.5584852,19.0522222 11.2297041,19.2522778 9.82534911,19.2522778 C2.77128994,19.2522778 0.0887810651,14.1461667 0.0887810651,10.1465 C0.0887810651,5.26716667 3.89536095,0.740277778 10.4130651,0.740277778 C11.7932071,0.740277778 13.1212544,0.941055556 14.3223669,1.26822222 C16.2388639,1.79616667 17.1332781,2.44977778 17.6960473,2.8275 L15.5741065,4.81505556 L14.680426,5.01511111 L15.319503,4.00833333 C14.4507692,3.17922222 12.8651834,1.64522222 9.85102959,1.64522222 C5.81332544,1.64522222 2.77202367,4.66483333 2.77202367,9.06605556 C2.77202367,13.7937222 6.24769231,18.2462222 11.8181538,18.2462222 C13.4551006,18.2462222 14.2966864,17.9197778 15.0641657,17.6171667 L15.0641657,13.5683889 L11.2062249,13.7691667 L13.2496568,12.6865556 L18.667503,12.6865556 L18.0034793,13.3148889 C17.8229822,13.4665556 17.7987692,13.5171111 17.7474083,13.7171667 C17.7209941,13.9439444 17.6967811,14.6741111 17.6967811,14.9254444 L17.6967811,17.9956111 L17.6960473,17.9956111 Z" id="Shape" fill="#FFFFFF"></path>
                    <path d="M63.7220592,17.2719444 C62.8782722,17.1968333 62.7014438,17.0466111 62.7014438,16.0636667 L62.7014438,15.7870556 L62.7014438,1.8265 C62.7065799,1.77233333 62.7102485,1.71672222 62.7153846,1.664 C62.8188402,0.784333333 63.0734438,0.633388889 63.8666036,0.179833333 L60.2111716,0.179833333 L58.2939408,1.0855 L60.247858,1.0855 L60.247858,1.09705556 L60.2463905,1.08766667 L60.2463905,15.7863333 L60.2463905,16.6168889 C60.2463905,17.1188333 60.1451361,17.1953889 59.5574201,17.9493889 L64.0808521,17.9493889 L65.0266272,17.3968889 C64.5922604,17.3463333 64.1571598,17.3217778 63.7220592,17.2719444 L63.7220592,17.2719444 Z" id="Shape" fill="#FFFFFF"></path>
                    <path d="M74.1204497,17.5030556 C73.8423669,17.6532778 73.5628166,17.8287778 73.2847337,17.953 C72.4453491,18.3278333 71.5832189,18.4275 70.8208757,18.4275 C70.0108402,18.4275 68.7407574,18.3762222 67.4449941,17.4525 C65.644426,16.2030556 64.8578698,14.0544444 64.8578698,12.181 C64.8578698,8.30988889 68.0554556,6.41116667 70.6697278,6.41116667 C71.5832189,6.41116667 72.5231243,6.63577778 73.2847337,7.111 C74.5526154,7.93361111 74.8827929,9.00755556 75.0588876,9.58244444 L69.0966154,11.9563889 L67.1419645,12.1066111 C67.7751716,15.2793333 69.9580118,17.1260556 72.3697751,17.1260556 C73.664071,17.1260556 74.6032426,16.6768333 75.4661065,16.2528889 L74.1204497,17.5030556 L74.1204497,17.5030556 Z M71.7358343,10.0576667 C72.2171598,9.88288889 72.4710296,9.73338889 72.4710296,9.38383333 C72.4710296,8.385 71.3293491,7.23522222 69.9580118,7.23522222 C68.9417988,7.23522222 67.0392426,8.01016667 67.0392426,10.7076667 C67.0392426,11.1323333 67.0898698,11.5815556 67.116284,12.0322222 L71.7358343,10.0576667 L71.7358343,10.0576667 Z" id="Shape" fill="#FFFFFF"></path>
                    <g transform="translate(75.573964, 5.777778)" id="Shape" fill="#7F7F7F">
                        <path d="M0.996402367,0.804555556 L0.996402367,2.45266667 L0.793159763,2.45266667 L0.793159763,0.804555556 L0.239195266,0.804555556 L0.239195266,0.634111111 L1.55036686,0.634111111 L1.55036686,0.804555556 L0.996402367,0.804555556 L0.996402367,0.804555556 Z"></path>
                        <path d="M3.27902959,2.45266667 L3.27902959,0.788666667 L3.26949112,0.788666667 L2.75368047,2.45266667 L2.59446154,2.45266667 L2.07424852,0.788666667 L2.06764497,0.788666667 L2.06764497,2.45266667 L1.88274556,2.45266667 L1.88274556,0.633388889 L2.19971598,0.633388889 L2.67076923,2.10383333 L2.67737278,2.10383333 L3.14108876,0.633388889 L3.46246154,0.633388889 L3.46246154,2.45266667 L3.27902959,2.45266667 L3.27902959,2.45266667 Z"></path>
                    </g>
                </g>
            </g>
            <path d="M46.3476562,15.8339844 C46.0937487,16.1699236 45.6982449,16.4687487 45.1611328,16.7304688 C44.6240208,16.9921888 43.9453166,17.1230469 43.125,17.1230469 C42.082026,17.1230469 41.2304721,16.7988314 40.5703125,16.1503906 C39.9101529,15.5019499 39.5800781,14.6601614 39.5800781,13.625 L39.5800781,11.84375 C39.5800781,10.8124948 39.8974578,9.97168294 40.5322266,9.32128906 C41.1669954,8.67089519 41.98437,8.34570312 42.984375,8.34570312 C44.0234427,8.34570312 44.8193332,8.59863028 45.3720703,9.10449219 C45.9248075,9.61035409 46.2070312,10.2753865 46.21875,11.0996094 L46.2070312,11.1347656 L44.5957031,11.1347656 C44.564453,10.6816384 44.4199232,10.3232435 44.1621094,10.0595703 C43.9042956,9.79589712 43.5273462,9.6640625 43.03125,9.6640625 C42.5078099,9.6640625 42.0859391,9.86620892 41.765625,10.2705078 C41.4453109,10.6748067 41.2851562,11.1953093 41.2851562,11.8320312 L41.2851562,13.625 C41.2851562,14.2734407 41.4511702,14.7998027 41.7832031,15.2041016 C42.115236,15.6084005 42.5624972,15.8105469 43.125,15.8105469 C43.5234395,15.8105469 43.8437488,15.7695317 44.0859375,15.6875 C44.3281262,15.6054683 44.5117181,15.5039069 44.6367188,15.3828125 L44.6367188,13.8007812 L43.125,13.8007812 L43.125,12.6171875 L46.3476562,12.6171875 L46.3476562,15.8339844 Z M54.0625,13.25 L50.5292969,13.25 L50.5292969,15.6875 L54.6601562,15.6875 L54.6601562,17 L48.8183594,17 L48.8183594,8.46875 L54.6484375,8.46875 L54.6484375,9.78710938 L50.5292969,9.78710938 L50.5292969,11.9316406 L54.0625,11.9316406 L54.0625,13.25 Z M62.7207031,9.78710938 L60.3066406,9.78710938 L60.3066406,17 L58.5957031,17 L58.5957031,9.78710938 L56.1933594,9.78710938 L56.1933594,8.46875 L62.7207031,8.46875 L62.7207031,9.78710938 Z M70.4804688,17 L68.7695312,17 L68.7695312,8.46875 L70.4804688,8.46875 L70.4804688,17 Z M79.0800781,9.78710938 L76.6660156,9.78710938 L76.6660156,17 L74.9550781,17 L74.9550781,9.78710938 L72.5527344,9.78710938 L72.5527344,8.46875 L79.0800781,8.46875 L79.0800781,9.78710938 Z M91.8847656,13.5019531 C91.8847656,14.5488334 91.5537142,15.4140591 90.8916016,16.0976562 C90.2294889,16.7812534 89.3691459,17.1230469 88.3105469,17.1230469 C87.2597604,17.1230469 86.4062533,16.7812534 85.75,16.0976562 C85.0937467,15.4140591 84.765625,14.5488334 84.765625,13.5019531 L84.765625,11.9667969 C84.765625,10.9238229 85.0927702,10.0595737 85.7470703,9.37402344 C86.4013705,8.68847313 87.253901,8.34570312 88.3046875,8.34570312 C89.3632865,8.34570312 90.2246061,8.68847313 90.8886719,9.37402344 C91.5527377,10.0595737 91.8847656,10.9238229 91.8847656,11.9667969 L91.8847656,13.5019531 Z M90.1738281,11.9550781 C90.1738281,11.2910123 90.0078142,10.7460959 89.6757812,10.3203125 C89.3437483,9.89452912 88.8867217,9.68164062 88.3046875,9.68164062 C87.7226533,9.68164062 87.271486,9.89355257 86.9511719,10.3173828 C86.6308578,10.7412131 86.4707031,11.287106 86.4707031,11.9550781 L86.4707031,13.5019531 C86.4707031,14.1777378 86.6328109,14.7285135 86.9570312,15.1542969 C87.2812516,15.5800803 87.732419,15.7929688 88.3105469,15.7929688 C88.8964873,15.7929688 89.353514,15.5800803 89.6816406,15.1542969 C90.0097673,14.7285135 90.1738281,14.1777378 90.1738281,13.5019531 L90.1738281,11.9550781 Z M101.117188,17 L99.4121094,17 L95.9667969,11.1699219 L95.9316406,11.1757812 L95.9316406,17 L94.2207031,17 L94.2207031,8.46875 L95.9316406,8.46875 L99.3769531,14.2929688 L99.4121094,14.2871094 L99.4121094,8.46875 L101.117188,8.46875 L101.117188,17 Z" id="GET-IT-ON" fill="#FFFFFF" sketch:type="MSShapeGroup"></path>
        </g>
    </g>
</svg>