<svg width="504" height="96" viewBox="0 0 504 96" xmlns="http://www.w3.org/2000/svg" xmlns:sketch="http://www.bohemiancoding.com/sketch/ns"><title>cozy-icons-sprite</title><desc>Created with Sketch.</desc><defs><filter x="-50%" y="-50%" width="200%" height="200%" filterUnits="objectBoundingBox" id="a"><feOffset dy="1" in="SourceAlpha" result="shadowOffsetOuter1"/><feGaussianBlur stdDeviation="1.5" in="shadowOffsetOuter1" result="shadowBlurOuter1"/><feColorMatrix values="0 0 0 0 0 0 0 0 0 0 0 0 0 0 0 0 0 0 0.084 0" in="shadowBlurOuter1" result="shadowMatrixOuter1"/><feMerge><feMergeNode in="shadowMatrixOuter1"/><feMergeNode in="SourceGraphic"/></feMerge></filter><filter x="-50%" y="-50%" width="200%" height="200%" filterUnits="objectBoundingBox" id="b"><feOffset dy="1" in="SourceAlpha" result="shadowOffsetOuter1"/><feGaussianBlur stdDeviation="1.5" in="shadowOffsetOuter1" result="shadowBlurOuter1"/><feColorMatrix values="0 0 0 0 0 0 0 0 0 0 0 0 0 0 0 0 0 0 0.084 0" in="shadowBlurOuter1" result="shadowMatrixOuter1"/><feMerge><feMergeNode in="shadowMatrixOuter1"/><feMergeNode in="SourceGraphic"/></feMerge></filter><linearGradient x1="50%" y1="0%" x2="50%" y2="100%" id="c"><stop stop-color="#20A8F1" offset="0%"/><stop stop-color="#62C6ED" offset="100%"/></linearGradient><filter x="-50%" y="-50%" width="200%" height="200%" filterUnits="objectBoundingBox" id="d"><feOffset dy="1" in="SourceAlpha" result="shadowOffsetOuter1"/><feGaussianBlur stdDeviation="1.5" in="shadowOffsetOuter1" result="shadowBlurOuter1"/><feColorMatrix values="0 0 0 0 0 0 0 0 0 0 0 0 0 0 0 0 0 0 0.084 0" in="shadowBlurOuter1" result="shadowMatrixOuter1"/><feMerge><feMergeNode in="shadowMatrixOuter1"/><feMergeNode in="SourceGraphic"/></feMerge></filter><filter x="-50%" y="-50%" width="200%" height="200%" filterUnits="objectBoundingBox" id="e"><feOffset dy="1" in="SourceAlpha" result="shadowOffsetOuter1"/><feGaussianBlur stdDeviation="1.5" in="shadowOffsetOuter1" result="shadowBlurOuter1"/><feColorMatrix values="0 0 0 0 0 0 0 0 0 0 0 0 0 0 0 0 0 0 0.084 0" in="shadowBlurOuter1" result="shadowMatrixOuter1"/><feMerge><feMergeNode in="shadowMatrixOuter1"/><feMergeNode in="SourceGraphic"/></feMerge></filter><filter x="-50%" y="-50%" width="200%" height="200%" filterUnits="objectBoundingBox" id="f"><feOffset dy="1" in="SourceAlpha" result="shadowOffsetOuter1"/><feGaussianBlur stdDeviation="1.5" in="shadowOffsetOuter1" result="shadowBlurOuter1"/><feColorMatrix values="0 0 0 0 0 0 0 0 0 0 0 0 0 0 0 0 0 0 0.084 0" in="shadowBlurOuter1" result="shadowMatrixOuter1"/><feMerge><feMergeNode in="shadowMatrixOuter1"/><feMergeNode in="SourceGraphic"/></feMerge></filter><filter x="-50%" y="-50%" width="200%" height="200%" filterUnits="objectBoundingBox" id="g"><feOffset dy="1" in="SourceAlpha" result="shadowOffsetOuter1"/><feGaussianBlur stdDeviation="1.5" in="shadowOffsetOuter1" result="shadowBlurOuter1"/><feColorMatrix values="0 0 0 0 0 0 0 0 0 0 0 0 0 0 0 0 0 0 0.084 0" in="shadowBlurOuter1" result="shadowMatrixOuter1"/><feMerge><feMergeNode in="shadowMatrixOuter1"/><feMergeNode in="SourceGraphic"/></feMerge></filter></defs><g sketch:type="MSPage" fill="none"><g sketch:type="MSLayerGroup" transform="translate(388 18)"><circle fill="#FF5729" filter="url(#a)" sketch:type="MSShapeGroup" cx="30" cy="30" r="30"/><path d="M41.997 16h-23.995c-1.103 0-2.003.897-2.003 2.003v23.995c0 1.102.897 2.003 2.003 2.003h23.995c1.102 0 2.003-.897 2.003-2.003v-23.995c0-1.103-.897-2.003-2.003-2.003zm-21.232 2.023v1.505c0 .571.467 1.037 1.037 1.037.571 0 1.037-.467 1.037-1.037v-1.505h3.424v1.505c0 .571.467 1.037 1.037 1.037.571 0 1.037-.467 1.037-1.037v-1.505h3.425v1.505c0 .571.466 1.037 1.037 1.037s1.037-.467 1.037-1.037v-1.505h3.425v1.505c0 .571.466 1.037 1.037 1.037s1.037-.467 1.037-1.037v-1.505h2.661v3.977h-23.998v-3.977h2.765zm21.234 23.976h-23.999v-18h23.999v18zm-14.473-6.767c-.289.227-.665.34-1.127.34-.427 0-.805-.091-1.133-.273-.329-.182-.622-.402-.88-.66l-.733.986c.302.339.685.623 1.147.853.462.231 1.04.347 1.733.347.409 0 .793-.055 1.153-.167.36-.111.675-.271.947-.481.271-.208.485-.464.64-.766.155-.302.233-.649.233-1.04 0-.561-.167-1.018-.5-1.374-.333-.356-.753-.6-1.26-.733v-.053c.462-.179.825-.427 1.087-.747s.393-.72.393-1.2c0-.355-.067-.673-.2-.953-.133-.28-.32-.515-.56-.707-.24-.191-.529-.335-.867-.433-.338-.098-.711-.147-1.12-.147-.507 0-.967.098-1.38.293-.413.195-.802.453-1.167.773l.787.947c.258-.24.522-.433.793-.58.271-.147.575-.22.913-.22.391 0 .698.1.92.3.222.2.333.478.333.833 0 .195-.038.377-.113.546-.075.169-.2.313-.373.433s-.4.213-.68.28c-.28.067-.629.099-1.047.099v1.121c.48 0 .88.033 1.2.099.32.067.575.162.767.287.191.125.327.276.407.454.08.178.12.378.12.599 0 .401-.145.715-.433.941zm9.14.1h-2v-7.333h-1.333c-.267.16-.433.482-.739.593-.307.111-.833.327-1.261.407v1h2v5.333h-2v1.333h5.333v-1.333z" id="Shape" fill-opacity=".505" fill="#000" sketch:type="MSShapeGroup"/><circle opacity=".9" fill="#31D93E" filter="url(#b)" sketch:type="MSShapeGroup" cx="82" cy="30" r="30"/><path d="M94.783 19.41v24.417c0 .67-.507 1.172-1.126 1.172h-19.263c-1.07 0-2.084-.223-2.816-.614-.958-.502-1.577-1.228-1.577-2.121v-24.656c0-.949.62-1.492 1.577-1.995.732-.391 1.746-.614 2.816-.614h17.781c.62 0 .978.364.978.978s-.359.978-.978.978h-17.609c-.732 0-1.58.103-2.031.326l-.578.326s.409.214.578.326c.451.223 1.126.415 1.859.415h19.263c.62-.056 1.126.447 1.126 1.061zm-20.87.726c-.789 0-1.337-.348-1.957-.571v22.5s1.224.978 1.957.978h18.913v-22.907h-18.913zm3.578 18.126c0 .391-.282.67-.676.67-.394 0-.676-.279-.676-.67 0-1.005.394-1.786 1.014-2.289.789-.782 1.915-1.117 2.535-1.172.113 0 .169-.056.225-.112l.056-.056c-.507-.447-.732-1.005-.901-1.452-.113-.223-.169-.391-.169-.447-.225-.223-.563-.614-.732-1.061-.169-.447-.225-.949 0-1.396-.113-.391-.169-.837-.169-1.284 0-.558.113-1.172.282-1.731.282-.782.732-1.396 1.352-1.786.62-.391 1.408-.614 2.253-.614.338 0 .732 0 1.183.056.451.112.958.279 1.239.67.563 0 1.07.279 1.464.782.507.558.845 1.396.901 1.842.056.391.056.726 0 1.117l-.169.893c.282.502.225 1.005.056 1.452v.056c-.169.447-.507.837-.732 1.061-.056.056-.113.223-.169.447-.169.447-.394 1.005-.901 1.452l.056.056c.056.056.169.112.225.112.676.056 1.746.391 2.591 1.172.563.558 1.014 1.284 1.014 2.289 0 .391-.282.67-.676.67-.394 0-.676-.279-.676-.67 0-.614-.225-1.061-.563-1.34-.563-.502-1.295-.726-1.746-.782-.394-.056-.789-.223-1.07-.502-.282-.279-.451-.67-.451-1.061v-.223c0-.223.113-.447.338-.558.338-.223.507-.67.676-1.061.169-.335.282-.67.507-.893.113-.112.282-.335.394-.558v-.056c.056-.167.056-.279 0-.391-.113-.112-.169-.223-.169-.391v-.335c.113-.335.169-.614.225-.949.056-.279.056-.558 0-.782-.056-.335-.282-.837-.62-1.228-.225-.279-.394-.391-.507-.391-.225.056-.451 0-.62-.112-.169-.056-.338-.223-.451-.391v-.056c-.056-.112-.225-.167-.451-.167-.282-.056-.676-.056-.901-.056-.62 0-1.126.167-1.577.391-.338.223-.62.614-.789 1.117-.113.391-.225.837-.225 1.284 0 .391.056.782.225 1.117.113.223.056.558-.113.726-.113.112-.056.279 0 .391.113.223.282.447.394.558.282.223.394.558.563.949.169.391.338.837.676 1.061.169.112.338.335.338.558v.223c0 .447-.169.782-.451 1.061-.282.279-.676.447-1.07.502-.451.056-1.239.279-1.746.782-.338.447-.62.893-.62 1.507z" fill-opacity=".499" fill="#000" sketch:type="MSShapeGroup"/></g><g sketch:type="MSLayerGroup" fill="url(#c)"><path d="M62.113 69h-28.225c-8.762 0-15.887-7.181-15.887-16.007 0-4.209 1.608-8.185 4.531-11.194 2.56-2.633 5.877-4.272 9.464-4.698.424-3.615 2.049-6.957 4.664-9.536 2.986-2.946 6.932-4.564 11.11-4.564 4.177 0 8.124 1.618 11.11 4.563 2.605 2.568 4.225 5.892 4.66 9.487 8.094.731 14.46 7.602 14.46 15.943 0 8.826-7.13 16.006-15.889 16.006h.001zm.054-3.001h.122c7.01 0 12.712-5.777 12.712-12.879 0-7.1-5.702-12.878-12.712-12.878h-.128c-.915 0-1.665-.738-1.686-1.667-.158-6.936-5.858-12.575-12.707-12.575-6.849 0-12.551 5.642-12.708 12.577-.021.912-.746 1.648-1.648 1.669-6.844.16-12.413 5.935-12.413 12.875 0 7.102 5.702 12.879 12.712 12.879h.103l.04-.002.109.002h28.199l.004-.001zm-6.249-13.965c-1.002-.658-1.051-1.867-1.054-1.92-.007-.329-.274-.587-.6-.582-.326.006-.586.278-.58.604.002.043.019.611.288 1.28-3.567 3.401-9.173 3.406-12.747.021.276-.679.294-1.256.294-1.3.006-.326-.252-.595-.576-.604-.32-.01-.593.254-.604.58 0 .048-.048 1.262-1.053 1.92-.274.181-.35.55-.172.824.113.174.3.269.495.269.11 0 .222-.031.322-.097.258-.169.474-.362.655-.568 1.985 1.8 4.494 2.699 7.003 2.699 2.515 0 5.029-.903 7.018-2.712.182.208.401.406.666.58.098.065.211.097.322.097.192 0 .38-.097.495-.271.178-.275.101-.645-.172-.824v.002z" filter="url(#d)" sketch:type="MSShapeGroup"/><path d="M142.125 54.375v19.629c0 .546.45.996 1.005.996h1.74c.56 0 1.005-.446 1.005-.996v-19.629l5.625 5.625 2.5-2.5-10-10-10 10 2.5 2.5 5.625-5.625zm7.875 14.625h8.113-.001c8.759 0 15.889-7.181 15.889-16.006 0-8.341-6.366-15.213-14.46-15.943-.435-3.596-2.055-6.92-4.66-9.487-2.986-2.945-6.933-4.563-11.11-4.563-4.178 0-8.124 1.618-11.11 4.564-2.615 2.579-4.241 5.921-4.664 9.536-3.588.426-6.904 2.065-9.464 4.698-2.923 3.009-4.531 6.985-4.531 11.194 0 8.827 7.125 16.007 15.887 16.007h8.113v-3h-8.036l-.109-.002-.04.002h-.103c-7.01 0-12.712-5.777-12.712-12.879 0-6.94 5.568-12.715 12.413-12.875.902-.021 1.627-.756 1.648-1.669.157-6.936 5.859-12.577 12.708-12.577s12.549 5.639 12.707 12.575c.021.93.77 1.667 1.686 1.667h.128c7.01 0 12.712 5.777 12.712 12.878 0 7.102-5.702 12.879-12.712 12.879h-.122l-.004.001h-8.163v3z" filter="url(#e)" sketch:type="MSShapeGroup"/><path d="M249.2 69h4.911c8.759 0 15.889-7.181 15.889-16.006 0-8.341-6.366-15.213-14.46-15.943-.435-3.596-2.055-6.92-4.66-9.487-2.986-2.945-6.933-4.563-11.11-4.563-4.178 0-8.124 1.618-11.11 4.564-2.615 2.579-4.241 5.921-4.664 9.536-3.588.426-6.904 2.065-9.464 4.698-2.923 3.009-4.531 6.985-4.531 11.194 0 8.827 7.125 16.007 15.887 16.007h2.113l-3.021-3.021c-6.67-.386-11.979-6.005-11.979-12.858 0-6.94 5.568-12.715 12.413-12.875.902-.021 1.627-.756 1.648-1.669.157-6.936 5.859-12.577 12.708-12.577s12.549 5.639 12.707 12.575c.021.93.77 1.667 1.686 1.667h.128c7.01 0 12.712 5.777 12.712 12.878 0 7.102-5.702 12.879-12.712 12.879h-.122l-.004.001h-4.363l-.6 3zm-15.646 4.463l-1.519-5.921-6.035-4.555 24-11.987-5.976 24-6.012-4.522-4.458 2.984zm.946-7.963l.519 3 11.481-14-12 11z" filter="url(#f)" sketch:type="MSShapeGroup"/><path d="M341.405 58.227c-1.651-1.973-4.131-3.227-6.905-3.227-4.971 0-9 4.029-9 9s4.029 9 9 9c3.811 0 7.069-2.369 8.382-5.715l-2.356-1.041c-.91 2.444-3.265 4.185-6.026 4.185-3.55 0-6.429-2.878-6.429-6.429 0-3.55 2.878-6.429 6.429-6.429 2.093 0 3.952 1 5.125 2.548l-2.125 2.26.653.621h5.847v-6.5l-.5-.5-2.095 2.227zm4.795 10.773h3.911c8.759 0 15.889-7.181 15.889-16.006 0-8.341-6.366-15.213-14.46-15.943-.435-3.596-2.055-6.92-4.66-9.487-2.986-2.945-6.933-4.563-11.11-4.563-4.178 0-8.124 1.618-11.11 4.564-2.615 2.579-4.241 5.921-4.664 9.536-3.588.426-6.904 2.065-9.464 4.698-2.923 3.009-4.531 6.985-4.531 11.194 0 8.827 7.125 16.007 15.887 16.007h1.913l-.6-3h-1.236l-.109-.002-.04.002h-.103c-7.01 0-12.712-5.777-12.712-12.879 0-6.94 5.568-12.715 12.413-12.875.902-.021 1.627-.756 1.648-1.669.157-6.936 5.859-12.577 12.708-12.577s12.549 5.639 12.707 12.575c.021.93.77 1.667 1.686 1.667h.128c7.01 0 12.712 5.777 12.712 12.878 0 7.102-5.702 12.879-12.712 12.879h-.122l-.004.001h-3.363l-.6 3z" filter="url(#g)" sketch:type="MSShapeGroup"/></g></g></svg>